<svg class="rich-terminal" viewBox="0 0 994 635.5999999999999" xmlns="http://www.w3.org/2000/svg">
    <!-- Generated with Rich https://www.textualize.io -->
    <style>

    @font-face {
        font-family: "Fira Code";
        src: local("FiraCode-Regular"),
                url("https://cdnjs.cloudflare.com/ajax/libs/firacode/6.2.0/woff2/FiraCode-Regular.woff2") format("woff2"),
                url("https://cdnjs.cloudflare.com/ajax/libs/firacode/6.2.0/woff/FiraCode-Regular.woff") format("woff");
        font-style: normal;
        font-weight: 400;
    }
    @font-face {
        font-family: "Fira Code";
        src: local("FiraCode-Bold"),
                url("https://cdnjs.cloudflare.com/ajax/libs/firacode/6.2.0/woff2/FiraCode-Bold.woff2") format("woff2"),
                url("https://cdnjs.cloudflare.com/ajax/libs/firacode/6.2.0/woff/FiraCode-Bold.woff") format("woff");
        font-style: bold;
        font-weight: 700;
    }

    .terminal-774067800-matrix {
        font-family: Fira Code, monospace;
        font-size: 20px;
        line-height: 24.4px;
        font-variant-east-asian: full-width;
    }

    .terminal-774067800-title {
        font-size: 18px;
        font-weight: bold;
        font-family: arial;
    }

    .terminal-774067800-r1 { fill: #c5c8c6 }
.terminal-774067800-r2 { fill: #ffffff;font-weight: bold }
.terminal-774067800-r3 { fill: #5cb8ff;font-weight: bold }
.terminal-774067800-r4 { fill: #4582b1;font-weight: bold }
.terminal-774067800-r5 { fill: #5cb8ff }
.terminal-774067800-r6 { fill: #b0b0b0;font-weight: bold }
.terminal-774067800-r7 { fill: #b0b0b0 }
.terminal-774067800-r8 { fill: #1a1a1a }
.terminal-774067800-r9 { fill: #0a0a0a }
.terminal-774067800-r10 { fill: #ffdf4d;font-weight: bold }
.terminal-774067800-r11 { fill: #e1e1e1;font-weight: bold }
.terminal-774067800-r12 { fill: #161616 }
.terminal-774067800-r13 { fill: #9d9d9d;font-weight: bold }
.terminal-774067800-r14 { fill: #ff7ab2;font-weight: bold }
.terminal-774067800-r15 { fill: #b4a7ff;font-weight: bold }
.terminal-774067800-r16 { fill: #b0b0b0;font-weight: bold;font-style: italic; }
.terminal-774067800-r17 { fill: #ffffff }
.terminal-774067800-r18 { fill: #afafaf }
.terminal-774067800-r19 { fill: #5dfa5d }
.terminal-774067800-r20 { fill: #ff7ab2 }
.terminal-774067800-r21 { fill: #ffdf4d }
.terminal-774067800-r22 { fill: #b4a7ff }
.terminal-774067800-r23 { fill: #dfdfdf;font-weight: bold;text-decoration: underline; }
.terminal-774067800-r24 { fill: #dfdfdf;text-decoration: underline; }
    </style>

    <defs>
    <clipPath id="terminal-774067800-clip-terminal">
      <rect x="0" y="0" width="975.0" height="584.5999999999999" />
    </clipPath>
    <clipPath id="terminal-774067800-line-0">
    <rect x="0" y="1.5" width="976" height="24.65"/>
            </clipPath>
<clipPath id="terminal-774067800-line-1">
    <rect x="0" y="25.9" width="976" height="24.65"/>
            </clipPath>
<clipPath id="terminal-774067800-line-2">
    <rect x="0" y="50.3" width="976" height="24.65"/>
            </clipPath>
<clipPath id="terminal-774067800-line-3">
    <rect x="0" y="74.7" width="976" height="24.65"/>
            </clipPath>
<clipPath id="terminal-774067800-line-4">
    <rect x="0" y="99.1" width="976" height="24.65"/>
            </clipPath>
<clipPath id="terminal-774067800-line-5">
    <rect x="0" y="123.5" width="976" height="24.65"/>
            </clipPath>
<clipPath id="terminal-774067800-line-6">
    <rect x="0" y="147.9" width="976" height="24.65"/>
            </clipPath>
<clipPath id="terminal-774067800-line-7">
    <rect x="0" y="172.3" width="976" height="24.65"/>
            </clipPath>
<clipPath id="terminal-774067800-line-8">
    <rect x="0" y="196.7" width="976" height="24.65"/>
            </clipPath>
<clipPath id="terminal-774067800-line-9">
    <rect x="0" y="221.1" width="976" height="24.65"/>
            </clipPath>
<clipPath id="terminal-774067800-line-10">
    <rect x="0" y="245.5" width="976" height="24.65"/>
            </clipPath>
<clipPath id="terminal-774067800-line-11">
    <rect x="0" y="269.9" width="976" height="24.65"/>
            </clipPath>
<clipPath id="terminal-774067800-line-12">
    <rect x="0" y="294.3" width="976" height="24.65"/>
            </clipPath>
<clipPath id="terminal-774067800-line-13">
    <rect x="0" y="318.7" width="976" height="24.65"/>
            </clipPath>
<clipPath id="terminal-774067800-line-14">
    <rect x="0" y="343.1" width="976" height="24.65"/>
            </clipPath>
<clipPath id="terminal-774067800-line-15">
    <rect x="0" y="367.5" width="976" height="24.65"/>
            </clipPath>
<clipPath id="terminal-774067800-line-16">
    <rect x="0" y="391.9" width="976" height="24.65"/>
            </clipPath>
<clipPath id="terminal-774067800-line-17">
    <rect x="0" y="416.3" width="976" height="24.65"/>
            </clipPath>
<clipPath id="terminal-774067800-line-18">
    <rect x="0" y="440.7" width="976" height="24.65"/>
            </clipPath>
<clipPath id="terminal-774067800-line-19">
    <rect x="0" y="465.1" width="976" height="24.65"/>
            </clipPath>
<clipPath id="terminal-774067800-line-20">
    <rect x="0" y="489.5" width="976" height="24.65"/>
            </clipPath>
<clipPath id="terminal-774067800-line-21">
    <rect x="0" y="513.9" width="976" height="24.65"/>
            </clipPath>
<clipPath id="terminal-774067800-line-22">
    <rect x="0" y="538.3" width="976" height="24.65"/>
            </clipPath>
    </defs>

    <rect fill="#292929" stroke="rgba(255,255,255,0.35)" stroke-width="1" x="1" y="1" width="992" height="633.6" rx="8"/><text class="terminal-774067800-title" fill="#c5c8c6" text-anchor="middle" x="496" y="27">ascii-high-contrast</text>
            <g transform="translate(26,22)">
            <circle cx="0" cy="0" r="7" fill="#ff5f57"/>
            <circle cx="22" cy="0" r="7" fill="#febc2e"/>
            <circle cx="44" cy="0" r="7" fill="#28c840"/>
            </g>

    <g transform="translate(9, 41)" clip-path="url(#terminal-774067800-clip-terminal)">
    <rect fill="#1a1a1a" x="0" y="1.5" width="12.2" height="24.65" shape-rendering="crispEdges"/><rect fill="#1a1a1a" x="12.2" y="1.5" width="12.2" height="24.65" shape-rendering="crispEdges"/><rect fill="#1a1a1a" x="24.4" y="1.5" width="61" height="24.65" shape-rendering="crispEdges"/><rect fill="#1a1a1a" x="85.4" y="1.5" width="12.2" height="24.65" shape-rendering="crispEdges"/><rect fill="#1a1a1a" x="97.6" y="1.5" width="207.4" height="24.65" shape-rendering="crispEdges"/><rect fill="#1a1a1a" x="305" y="1.5" width="231.8" height="24.65" shape-rendering="crispEdges"/><rect fill="#1a1a1a" x="536.8" y="1.5" width="36.6" height="24.65" shape-rendering="crispEdges"/><rect fill="#1a1a1a" x="573.4" y="1.5" width="73.2" height="24.65" shape-rendering="crispEdges"/><rect fill="#1a1a1a" x="646.6" y="1.5" width="207.4" height="24.65" shape-rendering="crispEdges"/><rect fill="#1a1a1a" x="854" y="1.5" width="12.2" height="24.65" shape-rendering="crispEdges"/><rect fill="#1a1a1a" x="866.2" y="1.5" width="0" height="24.65" shape-rendering="crispEdges"/><rect fill="#1a1a1a" x="866.2" y="1.5" width="109.8" height="24.65" shape-rendering="crispEdges"/><rect fill="#0a0a0a" x="0" y="25.9" width="976" height="24.65" shape-rendering="crispEdges"/><rect fill="#0a0a0a" x="0" y="50.3" width="12.2" height="24.65" shape-rendering="crispEdges"/><rect fill="#0a0a0a" x="12.2" y="50.3" width="12.2" height="24.65" shape-rendering="crispEdges"/><rect fill="#0a0a0a" x="24.4" y="50.3" width="12.2" height="24.65" shape-rendering="crispEdges"/><rect fill="#0a0a0a" x="36.6" y="50.3" width="73.2" height="24.65" shape-rendering="crispEdges"/><rect fill="#0a0a0a" x="109.8" y="50.3" width="109.8" height="24.65" shape-rendering="crispEdges"/><rect fill="#0a0a0a" x="219.6" y="50.3" width="744.2" height="24.65" shape-rendering="crispEdges"/><rect fill="#0a0a0a" x="963.8" y="50.3" width="12.2" height="24.65" shape-rendering="crispEdges"/><rect fill="#0a0a0a" x="0" y="74.7" width="12.2" height="24.65" shape-rendering="crispEdges"/><rect fill="#0a0a0a" x="12.2" y="74.7" width="12.2" height="24.65" shape-rendering="crispEdges"/><rect fill="#0a0a0a" x="24.4" y="74.7" width="170.8" height="24.65" shape-rendering="crispEdges"/><rect fill="#0a0a0a" x="195.2" y="74.7" width="36.6" height="24.65" shape-rendering="crispEdges"/><rect fill="#0a0a0a" x="231.8" y="74.7" width="109.8" height="24.65" shape-rendering="crispEdges"/><rect fill="#0a0a0a" x="341.6" y="74.7" width="61" height="24.65" shape-rendering="crispEdges"/><rect fill="#0a0a0a" x="402.6" y="74.7" width="146.4" height="24.65" shape-rendering="crispEdges"/><rect fill="#0a0a0a" x="549" y="74.7" width="48.8" height="24.65" shape-rendering="crispEdges"/><rect fill="#0a0a0a" x="597.8" y="74.7" width="134.2" height="24.65" shape-rendering="crispEdges"/><rect fill="#0a0a0a" x="732" y="74.7" width="231.8" height="24.65" shape-rendering="crispEdges"/><rect fill="#0a0a0a" x="963.8" y="74.7" width="12.2" height="24.65" shape-rendering="crispEdges"/><rect fill="#0a0a0a" x="0" y="99.1" width="12.2" height="24.65" shape-rendering="crispEdges"/><rect fill="#0a0a0a" x="12.2" y="99.1" width="951.6" height="24.65" shape-rendering="crispEdges"/><rect fill="#0a0a0a" x="963.8" y="99.1" width="12.2" height="24.65" shape-rendering="crispEdges"/><rect fill="#0a0a0a" x="0" y="123.5" width="12.2" height="24.65" shape-rendering="crispEdges"/><rect fill="#5cb8ff" x="12.2" y="123.5" width="12.2" height="24.65" shape-rendering="crispEdges"/><rect fill="#161616" x="24.4" y="123.5" width="927.2" height="24.65" shape-rendering="crispEdges"/><rect fill="#0a0a0a" x="951.6" y="123.5" width="24.4" height="24.65" shape-rendering="crispEdges"/><rect fill="#0a0a0a" x="0" y="147.9" width="12.2" height="24.65" shape-rendering="crispEdges"/><rect fill="#5cb8ff" x="12.2" y="147.9" width="12.2" height="24.65" shape-rendering="crispEdges"/><rect fill="#161616" x="24.4" y="147.9" width="12.2" height="24.65" shape-rendering="crispEdges"/><rect fill="#1a1a1a" x="36.6" y="147.9" width="12.2" height="24.65" shape-rendering="crispEdges"/><rect fill="#1a1a1a" x="48.8" y="147.9" width="756.4" height="24.65" shape-rendering="crispEdges"/><rect fill="#1a1a1a" x="805.2" y="147.9" width="109.8" height="24.65" shape-rendering="crispEdges"/><rect fill="#1a1a1a" x="915" y="147.9" width="24.4" height="24.65" shape-rendering="crispEdges"/><rect fill="#161616" x="939.4" y="147.9" width="12.2" height="24.65" shape-rendering="crispEdges"/><rect fill="#0a0a0a" x="951.6" y="147.9" width="24.4" height="24.65" shape-rendering="crispEdges"/><rect fill="#0a0a0a" x="0" y="172.3" width="12.2" height="24.65" shape-rendering="crispEdges"/><rect fill="#5cb8ff" x="12.2" y="172.3" width="12.2" height="24.65" shape-rendering="crispEdges"/><rect fill="#161616" x="24.4" y="172.3" width="12.2" height="24.65" shape-rendering="crispEdges"/><rect fill="#1a1a1a" x="36.6" y="172.3" width="475.8" height="24.65" shape-rendering="crispEdges"/><rect fill="#1a1a1a" x="512.4" y="172.3" width="402.6" height="24.65" shape-rendering="crispEdges"/><rect fill="#1a1a1a" x="915" y="172.3" width="24.4" height="24.65" shape-rendering="crispEdges"/><rect fill="#161616" x="939.4" y="172.3" width="12.2" height="24.65" shape-rendering="crispEdges"/><rect fill="#0a0a0a" x="951.6" y="172.3" width="24.4" height="24.65" shape-rendering="crispEdges"/><rect fill="#0a0a0a" x="0" y="196.7" width="12.2" height="24.65" shape-rendering="crispEdges"/><rect fill="#5cb8ff" x="12.2" y="196.7" width="12.2" height="24.65" shape-rendering="crispEdges"/><rect fill="#161616" x="24.4" y="196.7" width="12.2" height="24.65" shape-rendering="crispEdges"/><rect fill="#1a1a1a" x="36.6" y="196.7" width="122" height="24.65" shape-rendering="crispEdges"/><rect fill="#1a1a1a" x="158.6" y="196.7" width="24.4" height="24.65" shape-rendering="crispEdges"/><rect fill="#1a1a1a" x="183" y="196.7" width="61" height="24.65" shape-rendering="crispEdges"/><rect fill="#1a1a1a" x="244" y="196.7" width="12.2" height="24.65" shape-rendering="crispEdges"/><rect fill="#1a1a1a" x="256.2" y="196.7" width="61" height="24.65" shape-rendering="crispEdges"/><rect fill="#1a1a1a" x="317.2" y="196.7" width="12.2" height="24.65" shape-rendering="crispEdges"/><rect fill="#1a1a1a" x="329.4" y="196.7" width="61" height="24.65" shape-rendering="crispEdges"/><rect fill="#1a1a1a" x="390.4" y="196.7" width="24.4" height="24.65" shape-rendering="crispEdges"/><rect fill="#1a1a1a" x="414.8" y="196.7" width="24.4" height="24.65" shape-rendering="crispEdges"/><rect fill="#1a1a1a" x="439.2" y="196.7" width="475.8" height="24.65" shape-rendering="crispEdges"/><rect fill="#1a1a1a" x="915" y="196.7" width="24.4" height="24.65" shape-rendering="crispEdges"/><rect fill="#161616" x="939.4" y="196.7" width="12.2" height="24.65" shape-rendering="crispEdges"/><rect fill="#0a0a0a" x="951.6" y="196.7" width="24.4" height="24.65" shape-rendering="crispEdges"/><rect fill="#0a0a0a" x="0" y="221.1" width="12.2" height="24.65" shape-rendering="crispEdges"/><rect fill="#5cb8ff" x="12.2" y="221.1" width="12.2" height="24.65" shape-rendering="crispEdges"/><rect fill="#161616" x="24.4" y="221.1" width="12.2" height="24.65" shape-rendering="crispEdges"/><rect fill="#1a1a1a" x="36.6" y="221.1" width="829.6" height="24.65" shape-rendering="crispEdges"/><rect fill="#1a1a1a" x="866.2" y="221.1" width="48.8" height="24.65" shape-rendering="crispEdges"/><rect fill="#1a1a1a" x="915" y="221.1" width="24.4" height="24.65" shape-rendering="crispEdges"/><rect fill="#161616" x="939.4" y="221.1" width="12.2" height="24.65" shape-rendering="crispEdges"/><rect fill="#0a0a0a" x="951.6" y="221.1" width="24.4" height="24.65" shape-rendering="crispEdges"/><rect fill="#0a0a0a" x="0" y="245.5" width="12.2" height="24.65" shape-rendering="crispEdges"/><rect fill="#5cb8ff" x="12.2" y="245.5" width="12.2" height="24.65" shape-rendering="crispEdges"/><rect fill="#161616" x="24.4" y="245.5" width="12.2" height="24.65" shape-rendering="crispEdges"/><rect fill="#1a1a1a" x="36.6" y="245.5" width="646.6" height="24.65" shape-rendering="crispEdges"/><rect fill="#1a1a1a" x="683.2" y="245.5" width="231.8" height="24.65" shape-rendering="crispEdges"/><rect fill="#1a1a1a" x="915" y="245.5" width="24.4" height="24.65" shape-rendering="crispEdges"/><rect fill="#161616" x="939.4" y="245.5" width="12.2" height="24.65" shape-rendering="crispEdges"/><rect fill="#0a0a0a" x="951.6" y="245.5" width="24.4" height="24.65" shape-rendering="crispEdges"/><rect fill="#0a0a0a" x="0" y="269.9" width="12.2" height="24.65" shape-rendering="crispEdges"/><rect fill="#5cb8ff" x="12.2" y="269.9" width="12.2" height="24.65" shape-rendering="crispEdges"/><rect fill="#161616" x="24.4" y="269.9" width="12.2" height="24.65" shape-rendering="crispEdges"/><rect fill="#161616" x="36.6" y="269.9" width="12.2" height="24.65" shape-rendering="crispEdges"/><rect fill="#161616" x="48.8" y="269.9" width="12.2" height="24.65" shape-rendering="crispEdges"/><rect fill="#161616" x="61" y="269.9" width="695.4" height="24.65" shape-rendering="crispEdges"/><rect fill="#161616" x="756.4" y="269.9" width="158.6" height="24.65" shape-rendering="crispEdges"/><rect fill="#0a0a0a" x="915" y="269.9" width="24.4" height="24.65" shape-rendering="crispEdges"/><rect fill="#161616" x="939.4" y="269.9" width="12.2" height="24.65" shape-rendering="crispEdges"/><rect fill="#0a0a0a" x="951.6" y="269.9" width="24.4" height="24.65" shape-rendering="crispEdges"/><rect fill="#0a0a0a" x="0" y="294.3" width="12.2" height="24.65" shape-rendering="crispEdges"/><rect fill="#5cb8ff" x="12.2" y="294.3" width="12.2" height="24.65" shape-rendering="crispEdges"/><rect fill="#161616" x="24.4" y="294.3" width="12.2" height="24.65" shape-rendering="crispEdges"/><rect fill="#161616" x="36.6" y="294.3" width="402.6" height="24.65" shape-rendering="crispEdges"/><rect fill="#161616" x="439.2" y="294.3" width="475.8" height="24.65" shape-rendering="crispEdges"/><rect fill="#0a0a0a" x="915" y="294.3" width="24.4" height="24.65" shape-rendering="crispEdges"/><rect fill="#161616" x="939.4" y="294.3" width="12.2" height="24.65" shape-rendering="crispEdges"/><rect fill="#0a0a0a" x="951.6" y="294.3" width="24.4" height="24.65" shape-rendering="crispEdges"/><rect fill="#0a0a0a" x="0" y="318.7" width="12.2" height="24.65" shape-rendering="crispEdges"/><rect fill="#5cb8ff" x="12.2" y="318.7" width="12.2" height="24.65" shape-rendering="crispEdges"/><rect fill="#161616" x="24.4" y="318.7" width="12.2" height="24.65" shape-rendering="crispEdges"/><rect fill="#161616" x="36.6" y="318.7" width="122" height="24.65" shape-rendering="crispEdges"/><rect fill="#161616" x="158.6" y="318.7" width="24.4" height="24.65" shape-rendering="crispEdges"/><rect fill="#161616" x="183" y="318.7" width="61" height="24.65" shape-rendering="crispEdges"/><rect fill="#161616" x="244" y="318.7" width="12.2" height="24.65" shape-rendering="crispEdges"/><rect fill="#161616" x="256.2" y="318.7" width="85.4" height="24.65" shape-rendering="crispEdges"/><rect fill="#161616" x="341.6" y="318.7" width="24.4" height="24.65" shape-rendering="crispEdges"/><rect fill="#161616" x="366" y="318.7" width="195.2" height="24.65" shape-rendering="crispEdges"/><rect fill="#161616" x="561.2" y="318.7" width="12.2" height="24.65" shape-rendering="crispEdges"/><rect fill="#161616" x="573.4" y="318.7" width="170.8" height="24.65" shape-rendering="crispEdges"/><rect fill="#161616" x="744.2" y="318.7" width="170.8" height="24.65" shape-rendering="crispEdges"/><rect fill="#0a0a0a" x="915" y="318.7" width="24.4" height="24.65" shape-rendering="crispEdges"/><rect fill="#161616" x="939.4" y="318.7" width="12.2" height="24.65" shape-rendering="crispEdges"/><rect fill="#0a0a0a" x="951.6" y="318.7" width="24.4" height="24.65" shape-rendering="crispEdges"/><rect fill="#0a0a0a" x="0" y="343.1" width="12.2" height="24.65" shape-rendering="crispEdges"/><rect fill="#5cb8ff" x="12.2" y="343.1" width="12.2" height="24.65" shape-rendering="crispEdges"/><rect fill="#161616" x="24.4" y="343.1" width="927.2" height="24.65" shape-rendering="crispEdges"/><rect fill="#0a0a0a" x="951.6" y="343.1" width="24.4" height="24.65" shape-rendering="crispEdges"/><rect fill="#0a0a0a" x="0" y="367.5" width="12.2" height="24.65" shape-rendering="crispEdges"/><rect fill="#0a0a0a" x="12.2" y="367.5" width="12.2" height="24.65" shape-rendering="crispEdges"/><rect fill="#0a0a0a" x="24.4" y="367.5" width="256.2" height="24.65" shape-rendering="crispEdges"/><rect fill="#0a0a0a" x="280.6" y="367.5" width="683.2" height="24.65" shape-rendering="crispEdges"/><rect fill="#0a0a0a" x="963.8" y="367.5" width="12.2" height="24.65" shape-rendering="crispEdges"/><rect fill="#0a0a0a" x="0" y="391.9" width="976" height="24.65" shape-rendering="crispEdges"/><rect fill="#0a0a0a" x="0" y="416.3" width="976" height="24.65" shape-rendering="crispEdges"/><rect fill="#0a0a0a" x="0" y="440.7" width="12.2" height="24.65" shape-rendering="crispEdges"/><rect fill="#0a0a0a" x="12.2" y="440.7" width="12.2" height="24.65" shape-rendering="crispEdges"/><rect fill="#0a0a0a" x="24.4" y="440.7" width="439.2" height="24.65" shape-rendering="crispEdges"/><rect fill="#0a0a0a" x="463.6" y="440.7" width="500.2" height="24.65" shape-rendering="crispEdges"/><rect fill="#0a0a0a" x="963.8" y="440.7" width="12.2" height="24.65" shape-rendering="crispEdges"/><rect fill="#0a0a0a" x="0" y="465.1" width="12.2" height="24.65" shape-rendering="crispEdges"/><rect fill="#0a0a0a" x="12.2" y="465.1" width="12.2" height="24.65" shape-rendering="crispEdges"/><rect fill="#0a0a0a" x="24.4" y="465.1" width="744.2" height="24.65" shape-rendering="crispEdges"/><rect fill="#0a0a0a" x="768.6" y="465.1" width="158.6" height="24.65" shape-rendering="crispEdges"/><rect fill="#1a1a1a" x="927.2" y="465.1" width="24.4" height="24.65" shape-rendering="crispEdges"/><rect fill="#0a0a0a" x="951.6" y="465.1" width="12.2" height="24.65" shape-rendering="crispEdges"/><rect fill="#0a0a0a" x="963.8" y="465.1" width="12.2" height="24.65" shape-rendering="crispEdges"/><rect fill="#0a0a0a" x="0" y="489.5" width="12.2" height="24.65" shape-rendering="crispEdges"/><rect fill="#0a0a0a" x="12.2" y="489.5" width="12.2" height="24.65" shape-rendering="crispEdges"/><rect fill="#0a0a0a" x="24.4" y="489.5" width="0" height="24.65" shape-rendering="crispEdges"/><rect fill="#0a0a0a" x="24.4" y="489.5" width="902.8" height="24.65" shape-rendering="crispEdges"/><rect fill="#0a0a0a" x="927.2" y="489.5" width="24.4" height="24.65" shape-rendering="crispEdges"/><rect fill="#0a0a0a" x="951.6" y="489.5" width="12.2" height="24.65" shape-rendering="crispEdges"/><rect fill="#0a0a0a" x="963.8" y="489.5" width="12.2" height="24.65" shape-rendering="crispEdges"/><rect fill="#0a0a0a" x="0" y="513.9" width="12.2" height="24.65" shape-rendering="crispEdges"/><rect fill="#0a0a0a" x="12.2" y="513.9" width="12.2" height="24.65" shape-rendering="crispEdges"/><rect fill="#0a0a0a" x="24.4" y="513.9" width="61" height="24.65" shape-rendering="crispEdges"/><rect fill="#0a0a0a" x="85.4" y="513.9" width="73.2" height="24.65" shape-rendering="crispEdges"/><rect fill="#0a0a0a" x="158.6" y="513.9" width="61" height="24.65" shape-rendering="crispEdges"/><rect fill="#0a0a0a" x="219.6" y="513.9" width="24.4" height="24.65" shape-rendering="crispEdges"/><rect fill="#0a0a0a" x="244" y="513.9" width="683.2" height="24.65" shape-rendering="crispEdges"/><rect fill="#0a0a0a" x="927.2" y="513.9" width="24.4" height="24.65" shape-rendering="crispEdges"/><rect fill="#0a0a0a" x="951.6" y="513.9" width="12.2" height="24.65" shape-rendering="crispEdges"/><rect fill="#0a0a0a" x="963.8" y="513.9" width="12.2" height="24.65" shape-rendering="crispEdges"/><rect fill="#0a0a0a" x="0" y="538.3" width="976" height="24.65" shape-rendering="crispEdges"/><rect fill="#0a0a0a" x="0" y="562.7" width="12.2" height="24.65" shape-rendering="crispEdges"/><rect fill="#0a0a0a" x="12.2" y="562.7" width="12.2" height="24.65" shape-rendering="crispEdges"/><rect fill="#0a0a0a" x="24.4" y="562.7" width="12.2" height="24.65" shape-rendering="crispEdges"/><rect fill="#0a0a0a" x="36.6" y="562.7" width="73.2" height="24.65" shape-rendering="crispEdges"/><rect fill="#0a0a0a" x="109.8" y="562.7" width="24.4" height="24.65" shape-rendering="crispEdges"/><rect fill="#0a0a0a" x="134.2" y="562.7" width="61" height="24.65" shape-rendering="crispEdges"/><rect fill="#0a0a0a" x="195.2" y="562.7" width="12.2" height="24.65" shape-rendering="crispEdges"/><rect fill="#0a0a0a" x="207.4" y="562.7" width="73.2" height="24.65" shape-rendering="crispEdges"/><rect fill="#0a0a0a" x="280.6" y="562.7" width="24.4" height="24.65" shape-rendering="crispEdges"/><rect fill="#0a0a0a" x="305" y="562.7" width="12.2" height="24.65" shape-rendering="crispEdges"/><rect fill="#0a0a0a" x="317.2" y="562.7" width="12.2" height="24.65" shape-rendering="crispEdges"/><rect fill="#0a0a0a" x="329.4" y="562.7" width="48.8" height="24.65" shape-rendering="crispEdges"/><rect fill="#0a0a0a" x="378.2" y="562.7" width="24.4" height="24.65" shape-rendering="crispEdges"/><rect fill="#0a0a0a" x="402.6" y="562.7" width="12.2" height="24.65" shape-rendering="crispEdges"/><rect fill="#0a0a0a" x="414.8" y="562.7" width="12.2" height="24.65" shape-rendering="crispEdges"/><rect fill="#0a0a0a" x="427" y="562.7" width="48.8" height="24.65" shape-rendering="crispEdges"/><rect fill="#0a0a0a" x="475.8" y="562.7" width="24.4" height="24.65" shape-rendering="crispEdges"/><rect fill="#0a0a0a" x="500.2" y="562.7" width="12.2" height="24.65" shape-rendering="crispEdges"/><rect fill="#0a0a0a" x="512.4" y="562.7" width="12.2" height="24.65" shape-rendering="crispEdges"/><rect fill="#0a0a0a" x="524.6" y="562.7" width="48.8" height="24.65" shape-rendering="crispEdges"/><rect fill="#0a0a0a" x="573.4" y="562.7" width="24.4" height="24.65" shape-rendering="crispEdges"/><rect fill="#0a0a0a" x="597.8" y="562.7" width="73.2" height="24.65" shape-rendering="crispEdges"/><rect fill="#0a0a0a" x="671" y="562.7" width="12.2" height="24.65" shape-rendering="crispEdges"/><rect fill="#0a0a0a" x="683.2" y="562.7" width="97.6" height="24.65" shape-rendering="crispEdges"/><rect fill="#0a0a0a" x="780.8" y="562.7" width="24.4" height="24.65" shape-rendering="crispEdges"/><rect fill="#0a0a0a" x="805.2" y="562.7" width="12.2" height="24.65" shape-rendering="crispEdges"/><rect fill="#0a0a0a" x="817.4" y="562.7" width="12.2" height="24.65" shape-rendering="crispEdges"/><rect fill="#0a0a0a" x="829.6" y="562.7" width="48.8" height="24.65" shape-rendering="crispEdges"/><rect fill="#0a0a0a" x="878.4" y="562.7" width="97.6" height="24.65" shape-rendering="crispEdges"/>
    <g class="terminal-774067800-matrix">
    <text class="terminal-774067800-r2" x="12.2" y="20" textLength="12.2" clip-path="url(#terminal-774067800-line-0)">*</text><text class="terminal-774067800-r3" x="305" y="20" textLength="231.8" clip-path="url(#terminal-774067800-line-0)">arXiv&#160;Paper&#160;Browser</text><text class="terminal-774067800-r4" x="536.8" y="20" textLength="36.6" clip-path="url(#terminal-774067800-line-0)">&#160;-&#160;</text><text class="terminal-774067800-r4" x="573.4" y="20" textLength="73.2" clip-path="url(#terminal-774067800-line-0)">Browse</text><text class="terminal-774067800-r1" x="976" y="20" textLength="12.2" clip-path="url(#terminal-774067800-line-0)">
</text><text class="terminal-774067800-r5" x="0" y="44.4" textLength="976" clip-path="url(#terminal-774067800-line-1)">┏━━━━━━━━━━━━━━━━━━━━━━━━━━━━━━━━━━━━━━━━━━━━━━━━━━━━━━━━━━━━━━━━━━━━━━━━━━━━━━┓</text><text class="terminal-774067800-r1" x="976" y="44.4" textLength="12.2" clip-path="url(#terminal-774067800-line-1)">
</text><text class="terminal-774067800-r5" x="0" y="68.8" textLength="12.2" clip-path="url(#terminal-774067800-line-2)">┃</text><text class="terminal-774067800-r3" x="36.6" y="68.8" textLength="73.2" clip-path="url(#terminal-774067800-line-2)">Papers</text><text class="terminal-774067800-r3" x="109.8" y="68.8" textLength="109.8" clip-path="url(#terminal-774067800-line-2)">&#160;-&#160;Browse</text><text class="terminal-774067800-r5" x="963.8" y="68.8" textLength="12.2" clip-path="url(#terminal-774067800-line-2)">┃</text><text class="terminal-774067800-r1" x="976" y="68.8" textLength="12.2" clip-path="url(#terminal-774067800-line-2)">
</text><text class="terminal-774067800-r5" x="0" y="93.2" textLength="12.2" clip-path="url(#terminal-774067800-line-3)">┃</text><text class="terminal-774067800-r6" x="24.4" y="93.2" textLength="170.8" clip-path="url(#terminal-774067800-line-3)">Saved&#160;searches</text><text class="terminal-774067800-r7" x="231.8" y="93.2" textLength="109.8" clip-path="url(#terminal-774067800-line-3)">1:&#160;agents</text><text class="terminal-774067800-r7" x="402.6" y="93.2" textLength="146.4" clip-path="url(#terminal-774067800-line-3)">2:&#160;unread&#160;AI</text><text class="terminal-774067800-r7" x="597.8" y="93.2" textLength="134.2" clip-path="url(#terminal-774067800-line-3)">Ctrl+b&#160;save</text><text class="terminal-774067800-r5" x="963.8" y="93.2" textLength="12.2" clip-path="url(#terminal-774067800-line-3)">┃</text><text class="terminal-774067800-r1" x="976" y="93.2" textLength="12.2" clip-path="url(#terminal-774067800-line-3)">
</text><text class="terminal-774067800-r5" x="0" y="117.6" textLength="12.2" clip-path="url(#terminal-774067800-line-4)">┃</text><text class="terminal-774067800-r8" x="12.2" y="117.6" textLength="951.6" clip-path="url(#terminal-774067800-line-4)">──────────────────────────────────────────────────────────────────────────────</text><text class="terminal-774067800-r5" x="963.8" y="117.6" textLength="12.2" clip-path="url(#terminal-774067800-line-4)">┃</text><text class="terminal-774067800-r1" x="976" y="117.6" textLength="12.2" clip-path="url(#terminal-774067800-line-4)">
</text><text class="terminal-774067800-r5" x="0" y="142" textLength="12.2" clip-path="url(#terminal-774067800-line-5)">┃</text><text class="terminal-774067800-r9" x="12.2" y="142" textLength="12.2" clip-path="url(#terminal-774067800-line-5)">▊</text><text class="terminal-774067800-r5" x="24.4" y="142" textLength="927.2" clip-path="url(#terminal-774067800-line-5)">▔▔▔▔▔▔▔▔▔▔▔▔▔▔▔▔▔▔▔▔▔▔▔▔▔▔▔▔▔▔▔▔▔▔▔▔▔▔▔▔▔▔▔▔▔▔▔▔▔▔▔▔▔▔▔▔▔▔▔▔▔▔▔▔▔▔▔▔▔▔▔▔▔▔▔▔</text><text class="terminal-774067800-r5" x="951.6" y="142" textLength="24.4" clip-path="url(#terminal-774067800-line-5)">▎┃</text><text class="terminal-774067800-r1" x="976" y="142" textLength="12.2" clip-path="url(#terminal-774067800-line-5)">
</text><text class="terminal-774067800-r5" x="0" y="166.4" textLength="12.2" clip-path="url(#terminal-774067800-line-6)">┃</text><text class="terminal-774067800-r9" x="12.2" y="166.4" textLength="12.2" clip-path="url(#terminal-774067800-line-6)">▊</text><text class="terminal-774067800-r10" x="36.6" y="166.4" textLength="12.2" clip-path="url(#terminal-774067800-line-6)">*</text><text class="terminal-774067800-r11" x="48.8" y="166.4" textLength="756.4" clip-path="url(#terminal-774067800-line-6)">&#160;Retrieval-Augmented&#160;Agents&#160;for&#160;Long-Horizon&#160;Literature&#160;Review</text><text class="terminal-774067800-r5" x="951.6" y="166.4" textLength="24.4" clip-path="url(#terminal-774067800-line-6)">▎┃</text><text class="terminal-774067800-r1" x="976" y="166.4" textLength="12.2" clip-path="url(#terminal-774067800-line-6)">
</text><text class="terminal-774067800-r5" x="0" y="190.8" textLength="12.2" clip-path="url(#terminal-774067800-line-7)">┃</text><text class="terminal-774067800-r9" x="12.2" y="190.8" textLength="12.2" clip-path="url(#terminal-774067800-line-7)">▊</text><text class="terminal-774067800-r11" x="36.6" y="190.8" textLength="475.8" clip-path="url(#terminal-774067800-line-7)">Ada&#160;Lovelace,&#160;Alan&#160;Turing,&#160;Grace&#160;Hopper</text><text class="terminal-774067800-r5" x="951.6" y="190.8" textLength="24.4" clip-path="url(#terminal-774067800-line-7)">▎┃</text><text class="terminal-774067800-r1" x="976" y="190.8" textLength="12.2" clip-path="url(#terminal-774067800-line-7)">
</text><text class="terminal-774067800-r5" x="0" y="215.2" textLength="12.2" clip-path="url(#terminal-774067800-line-8)">┃</text><text class="terminal-774067800-r9" x="12.2" y="215.2" textLength="12.2" clip-path="url(#terminal-774067800-line-8)">▊</text><text class="terminal-774067800-r13" x="36.6" y="215.2" textLength="122" clip-path="url(#terminal-774067800-line-8)">2401.01001</text><text class="terminal-774067800-r14" x="183" y="215.2" textLength="61" clip-path="url(#terminal-774067800-line-8)">cs.AI</text><text class="terminal-774067800-r3" x="256.2" y="215.2" textLength="61" clip-path="url(#terminal-774067800-line-8)">cs.CL</text><text class="terminal-774067800-r15" x="329.4" y="215.2" textLength="61" clip-path="url(#terminal-774067800-line-8)">cs.IR</text><text class="terminal-774067800-r13" x="414.8" y="215.2" textLength="24.4" clip-path="url(#terminal-774067800-line-8)">+1</text><text class="terminal-774067800-r5" x="951.6" y="215.2" textLength="24.4" clip-path="url(#terminal-774067800-line-8)">▎┃</text><text class="terminal-774067800-r1" x="976" y="215.2" textLength="12.2" clip-path="url(#terminal-774067800-line-8)">
</text><text class="terminal-774067800-r5" x="0" y="239.6" textLength="12.2" clip-path="url(#terminal-774067800-line-9)">┃</text><text class="terminal-774067800-r9" x="12.2" y="239.6" textLength="12.2" clip-path="url(#terminal-774067800-line-9)">▊</text><text class="terminal-774067800-r16" x="36.6" y="239.6" textLength="829.6" clip-path="url(#terminal-774067800-line-9)">We&#160;study&#160;retrieval-augmented&#160;agents&#160;that&#160;organize&#160;papers,&#160;notes,&#160;and</text><text class="terminal-774067800-r5" x="951.6" y="239.6" textLength="24.4" clip-path="url(#terminal-774067800-line-9)">▎┃</text><text class="terminal-774067800-r1" x="976" y="239.6" textLength="12.2" clip-path="url(#terminal-774067800-line-9)">
</text><text class="terminal-774067800-r5" x="0" y="264" textLength="12.2" clip-path="url(#terminal-774067800-line-10)">┃</text><text class="terminal-774067800-r9" x="12.2" y="264" textLength="12.2" clip-path="url(#terminal-774067800-line-10)">▊</text><text class="terminal-774067800-r16" x="36.6" y="264" textLength="646.6" clip-path="url(#terminal-774067800-line-10)">citations&#160;across&#160;repeated&#160;literature-review&#160;sessions.</text><text class="terminal-774067800-r9" x="915" y="264" textLength="24.4" clip-path="url(#terminal-774067800-line-10)">▅▅</text><text class="terminal-774067800-r5" x="951.6" y="264" textLength="24.4" clip-path="url(#terminal-774067800-line-10)">▎┃</text><text class="terminal-774067800-r1" x="976" y="264" textLength="12.2" clip-path="url(#terminal-774067800-line-10)">
</text><text class="terminal-774067800-r5" x="0" y="288.4" textLength="12.2" clip-path="url(#terminal-774067800-line-11)">┃</text><text class="terminal-774067800-r9" x="12.2" y="288.4" textLength="12.2" clip-path="url(#terminal-774067800-line-11)">▊</text><text class="terminal-774067800-r7" x="36.6" y="288.4" textLength="12.2" clip-path="url(#terminal-774067800-line-11)">v</text><text class="terminal-774067800-r18" x="61" y="288.4" textLength="695.4" clip-path="url(#terminal-774067800-line-11)">Sparse&#160;Diffusion&#160;Transformers&#160;with&#160;Calibrated&#160;Uncertainty</text><text class="terminal-774067800-r5" x="951.6" y="288.4" textLength="24.4" clip-path="url(#terminal-774067800-line-11)">▎┃</text><text class="terminal-774067800-r1" x="976" y="288.4" textLength="12.2" clip-path="url(#terminal-774067800-line-11)">
</text><text class="terminal-774067800-r5" x="0" y="312.8" textLength="12.2" clip-path="url(#terminal-774067800-line-12)">┃</text><text class="terminal-774067800-r9" x="12.2" y="312.8" textLength="12.2" clip-path="url(#terminal-774067800-line-12)">▊</text><text class="terminal-774067800-r17" x="36.6" y="312.8" textLength="402.6" clip-path="url(#terminal-774067800-line-12)">Katherine&#160;Johnson,&#160;Claude&#160;Shannon</text><text class="terminal-774067800-r5" x="951.6" y="312.8" textLength="24.4" clip-path="url(#terminal-774067800-line-12)">▎┃</text><text class="terminal-774067800-r1" x="976" y="312.8" textLength="12.2" clip-path="url(#terminal-774067800-line-12)">
</text><text class="terminal-774067800-r5" x="0" y="337.2" textLength="12.2" clip-path="url(#terminal-774067800-line-13)">┃</text><text class="terminal-774067800-r9" x="12.2" y="337.2" textLength="12.2" clip-path="url(#terminal-774067800-line-13)">▊</text><text class="terminal-774067800-r18" x="36.6" y="337.2" textLength="122" clip-path="url(#terminal-774067800-line-13)">2401.01002</text><text class="terminal-774067800-r19" x="183" y="337.2" textLength="61" clip-path="url(#terminal-774067800-line-13)">cs.LG</text><text class="terminal-774067800-r7" x="256.2" y="337.2" textLength="85.4" clip-path="url(#terminal-774067800-line-13)">stat.ML</text><text class="terminal-774067800-r5" x="366" y="337.2" textLength="195.2" clip-path="url(#terminal-774067800-line-13)">#topic:diffusion</text><text class="terminal-774067800-r20" x="573.4" y="337.2" textLength="170.8" clip-path="url(#terminal-774067800-line-13)">#priority:high</text><text class="terminal-774067800-r5" x="951.6" y="337.2" textLength="24.4" clip-path="url(#terminal-774067800-line-13)">▎┃</text><text class="terminal-774067800-r1" x="976" y="337.2" textLength="12.2" clip-path="url(#terminal-774067800-line-13)">
</text><text class="terminal-774067800-r5" x="0" y="361.6" textLength="12.2" clip-path="url(#terminal-774067800-line-14)">┃</text><text class="terminal-774067800-r9" x="12.2" y="361.6" textLength="12.2" clip-path="url(#terminal-774067800-line-14)">▊</text><text class="terminal-774067800-r5" x="24.4" y="361.6" textLength="927.2" clip-path="url(#terminal-774067800-line-14)">▁▁▁▁▁▁▁▁▁▁▁▁▁▁▁▁▁▁▁▁▁▁▁▁▁▁▁▁▁▁▁▁▁▁▁▁▁▁▁▁▁▁▁▁▁▁▁▁▁▁▁▁▁▁▁▁▁▁▁▁▁▁▁▁▁▁▁▁▁▁▁▁▁▁▁▁</text><text class="terminal-774067800-r5" x="951.6" y="361.6" textLength="24.4" clip-path="url(#terminal-774067800-line-14)">▎┃</text><text class="terminal-774067800-r1" x="976" y="361.6" textLength="12.2" clip-path="url(#terminal-774067800-line-14)">
</text><text class="terminal-774067800-r5" x="0" y="386" textLength="12.2" clip-path="url(#terminal-774067800-line-15)">┃</text><text class="terminal-774067800-r7" x="24.4" y="386" textLength="256.2" clip-path="url(#terminal-774067800-line-15)">3&#160;papers&#160;|&#160;sort:title</text><text class="terminal-774067800-r5" x="963.8" y="386" textLength="12.2" clip-path="url(#terminal-774067800-line-15)">┃</text><text class="terminal-774067800-r1" x="976" y="386" textLength="12.2" clip-path="url(#terminal-774067800-line-15)">
</text><text class="terminal-774067800-r5" x="0" y="410.4" textLength="976" clip-path="url(#terminal-774067800-line-16)">┗━━━━━━━━━━━━━━━━━━━━━━━━━━━━━━━━━━━━━━━━━━━━━━━━━━━━━━━━━━━━━━━━━━━━━━━━━━━━━━┛</text><text class="terminal-774067800-r1" x="976" y="410.4" textLength="12.2" clip-path="url(#terminal-774067800-line-16)">
</text><text class="terminal-774067800-r8" x="0" y="434.8" textLength="976" clip-path="url(#terminal-774067800-line-17)">┌──────────────────────────────────────────────────────────────────────────────┐</text><text class="terminal-774067800-r1" x="976" y="434.8" textLength="12.2" clip-path="url(#terminal-774067800-line-17)">
</text><text class="terminal-774067800-r8" x="0" y="459.2" textLength="12.2" clip-path="url(#terminal-774067800-line-18)">│</text><text class="terminal-774067800-r10" x="24.4" y="459.2" textLength="439.2" clip-path="url(#terminal-774067800-line-18)">&#160;Paper&#160;Details&#160;-&#160;1/3&#160;-&#160;density:&#160;scan</text><text class="terminal-774067800-r8" x="963.8" y="459.2" textLength="12.2" clip-path="url(#terminal-774067800-line-18)">│</text><text class="terminal-774067800-r1" x="976" y="459.2" textLength="12.2" clip-path="url(#terminal-774067800-line-18)">
</text><text class="terminal-774067800-r8" x="0" y="483.6" textLength="12.2" clip-path="url(#terminal-774067800-line-19)">│</text><text class="terminal-774067800-r3" x="24.4" y="483.6" textLength="744.2" clip-path="url(#terminal-774067800-line-19)">Retrieval-Augmented&#160;Agents&#160;for&#160;Long-Horizon&#160;Literature&#160;Review</text><text class="terminal-774067800-r8" x="963.8" y="483.6" textLength="12.2" clip-path="url(#terminal-774067800-line-19)">│</text><text class="terminal-774067800-r1" x="976" y="483.6" textLength="12.2" clip-path="url(#terminal-774067800-line-19)">
</text><text class="terminal-774067800-r8" x="0" y="508" textLength="12.2" clip-path="url(#terminal-774067800-line-20)">│</text><text class="terminal-774067800-r8" x="963.8" y="508" textLength="12.2" clip-path="url(#terminal-774067800-line-20)">│</text><text class="terminal-774067800-r1" x="976" y="508" textLength="12.2" clip-path="url(#terminal-774067800-line-20)">
</text><text class="terminal-774067800-r8" x="0" y="532.4" textLength="12.2" clip-path="url(#terminal-774067800-line-21)">│</text><text class="terminal-774067800-r21" x="24.4" y="532.4" textLength="61" clip-path="url(#terminal-774067800-line-21)">Star:</text><text class="terminal-774067800-r17" x="85.4" y="532.4" textLength="73.2" clip-path="url(#terminal-774067800-line-21)">&#160;yes&#160;&#160;</text><text class="terminal-774067800-r22" x="158.6" y="532.4" textLength="61" clip-path="url(#terminal-774067800-line-21)">Tags:</text><text class="terminal-774067800-r17" x="219.6" y="532.4" textLength="24.4" clip-path="url(#terminal-774067800-line-21)">&#160;3</text><text class="terminal-774067800-r8" x="963.8" y="532.4" textLength="12.2" clip-path="url(#terminal-774067800-line-21)">│</text><text class="terminal-774067800-r1" x="976" y="532.4" textLength="12.2" clip-path="url(#terminal-774067800-line-21)">
</text><text class="terminal-774067800-r8" x="0" y="556.8" textLength="976" clip-path="url(#terminal-774067800-line-22)">└──────────────────────────────────────────────────────────────────────────────┘</text><text class="terminal-774067800-r1" x="976" y="556.8" textLength="12.2" clip-path="url(#terminal-774067800-line-22)">
</text><text class="terminal-774067800-r23" x="12.2" y="581.2" textLength="12.2" clip-path="url(#terminal-774067800-line-23)">/</text><text class="terminal-774067800-r24" x="36.6" y="581.2" textLength="73.2" clip-path="url(#terminal-774067800-line-23)">search</text><text class="terminal-774067800-r23" x="134.2" y="581.2" textLength="61" clip-path="url(#terminal-774067800-line-23)">Space</text><text class="terminal-774067800-r24" x="207.4" y="581.2" textLength="73.2" clip-path="url(#terminal-774067800-line-23)">select</text><text class="terminal-774067800-r23" x="305" y="581.2" textLength="12.2" clip-path="url(#terminal-774067800-line-23)">o</text><text class="terminal-774067800-r24" x="329.4" y="581.2" textLength="48.8" clip-path="url(#terminal-774067800-line-23)">open</text><text class="terminal-774067800-r23" x="402.6" y="581.2" textLength="12.2" clip-path="url(#terminal-774067800-line-23)">s</text><text class="terminal-774067800-r24" x="427" y="581.2" textLength="48.8" clip-path="url(#terminal-774067800-line-23)">sort</text><text class="terminal-774067800-r23" x="500.2" y="581.2" textLength="12.2" clip-path="url(#terminal-774067800-line-23)">r</text><text class="terminal-774067800-r24" x="524.6" y="581.2" textLength="48.8" clip-path="url(#terminal-774067800-line-23)">read</text><text class="terminal-774067800-r23" x="597.8" y="581.2" textLength="73.2" clip-path="url(#terminal-774067800-line-23)">Ctrl+p</text><text class="terminal-774067800-r24" x="683.2" y="581.2" textLength="97.6" clip-path="url(#terminal-774067800-line-23)">commands</text><text class="terminal-774067800-r23" x="805.2" y="581.2" textLength="12.2" clip-path="url(#terminal-774067800-line-23)">?</text><text class="terminal-774067800-r24" x="829.6" y="581.2" textLength="48.8" clip-path="url(#terminal-774067800-line-23)">help</text>
    </g>
    </g>
</svg>
