<svg class="rich-terminal" viewBox="0 0 994 635.5999999999999" xmlns="http://www.w3.org/2000/svg">
    <!-- Generated with Rich https://www.textualize.io -->
    <style>

    @font-face {
        font-family: "Fira Code";
        src: local("FiraCode-Regular"),
                url("https://cdnjs.cloudflare.com/ajax/libs/firacode/6.2.0/woff2/FiraCode-Regular.woff2") format("woff2"),
                url("https://cdnjs.cloudflare.com/ajax/libs/firacode/6.2.0/woff/FiraCode-Regular.woff") format("woff");
        font-style: normal;
        font-weight: 400;
    }
    @font-face {
        font-family: "Fira Code";
        src: local("FiraCode-Bold"),
                url("https://cdnjs.cloudflare.com/ajax/libs/firacode/6.2.0/woff2/FiraCode-Bold.woff2") format("woff2"),
                url("https://cdnjs.cloudflare.com/ajax/libs/firacode/6.2.0/woff/FiraCode-Bold.woff") format("woff");
        font-style: bold;
        font-weight: 700;
    }

    .terminal-2250760499-matrix {
        font-family: Fira Code, monospace;
        font-size: 20px;
        line-height: 24.4px;
        font-variant-east-asian: full-width;
    }

    .terminal-2250760499-title {
        font-size: 18px;
        font-weight: bold;
        font-family: arial;
    }

    .terminal-2250760499-r1 { fill: #c5c8c6 }
.terminal-2250760499-r2 { fill: #f8f8f8;font-weight: bold }
.terminal-2250760499-r3 { fill: #c2c2c2;font-weight: bold }
.terminal-2250760499-r4 { fill: #949494;font-weight: bold }
.terminal-2250760499-r5 { fill: #c2c2c2 }
.terminal-2250760499-r6 { fill: #474747 }
.terminal-2250760499-r7 { fill: #8e8e8e;font-weight: bold }
.terminal-2250760499-r8 { fill: #8e8e8e }
.terminal-2250760499-r9 { fill: #3c3c3c }
.terminal-2250760499-r10 { fill: #d6d6d6;font-weight: bold }
.terminal-2250760499-r11 { fill: #1e1e1e }
.terminal-2250760499-r12 { fill: #f8f8f8 }
.terminal-2250760499-r13 { fill: #d6d6d6 }
.terminal-2250760499-r14 { fill: #949494 }
.terminal-2250760499-r15 { fill: #777777 }
.terminal-2250760499-r16 { fill: #e1e1e1;font-weight: bold;text-decoration: underline; }
    </style>

    <defs>
    <clipPath id="terminal-2250760499-clip-terminal">
      <rect x="0" y="0" width="975.0" height="584.5999999999999" />
    </clipPath>
    <clipPath id="terminal-2250760499-line-0">
    <rect x="0" y="1.5" width="976" height="24.65"/>
            </clipPath>
<clipPath id="terminal-2250760499-line-1">
    <rect x="0" y="25.9" width="976" height="24.65"/>
            </clipPath>
<clipPath id="terminal-2250760499-line-2">
    <rect x="0" y="50.3" width="976" height="24.65"/>
            </clipPath>
<clipPath id="terminal-2250760499-line-3">
    <rect x="0" y="74.7" width="976" height="24.65"/>
            </clipPath>
<clipPath id="terminal-2250760499-line-4">
    <rect x="0" y="99.1" width="976" height="24.65"/>
            </clipPath>
<clipPath id="terminal-2250760499-line-5">
    <rect x="0" y="123.5" width="976" height="24.65"/>
            </clipPath>
<clipPath id="terminal-2250760499-line-6">
    <rect x="0" y="147.9" width="976" height="24.65"/>
            </clipPath>
<clipPath id="terminal-2250760499-line-7">
    <rect x="0" y="172.3" width="976" height="24.65"/>
            </clipPath>
<clipPath id="terminal-2250760499-line-8">
    <rect x="0" y="196.7" width="976" height="24.65"/>
            </clipPath>
<clipPath id="terminal-2250760499-line-9">
    <rect x="0" y="221.1" width="976" height="24.65"/>
            </clipPath>
<clipPath id="terminal-2250760499-line-10">
    <rect x="0" y="245.5" width="976" height="24.65"/>
            </clipPath>
<clipPath id="terminal-2250760499-line-11">
    <rect x="0" y="269.9" width="976" height="24.65"/>
            </clipPath>
<clipPath id="terminal-2250760499-line-12">
    <rect x="0" y="294.3" width="976" height="24.65"/>
            </clipPath>
<clipPath id="terminal-2250760499-line-13">
    <rect x="0" y="318.7" width="976" height="24.65"/>
            </clipPath>
<clipPath id="terminal-2250760499-line-14">
    <rect x="0" y="343.1" width="976" height="24.65"/>
            </clipPath>
<clipPath id="terminal-2250760499-line-15">
    <rect x="0" y="367.5" width="976" height="24.65"/>
            </clipPath>
<clipPath id="terminal-2250760499-line-16">
    <rect x="0" y="391.9" width="976" height="24.65"/>
            </clipPath>
<clipPath id="terminal-2250760499-line-17">
    <rect x="0" y="416.3" width="976" height="24.65"/>
            </clipPath>
<clipPath id="terminal-2250760499-line-18">
    <rect x="0" y="440.7" width="976" height="24.65"/>
            </clipPath>
<clipPath id="terminal-2250760499-line-19">
    <rect x="0" y="465.1" width="976" height="24.65"/>
            </clipPath>
<clipPath id="terminal-2250760499-line-20">
    <rect x="0" y="489.5" width="976" height="24.65"/>
            </clipPath>
<clipPath id="terminal-2250760499-line-21">
    <rect x="0" y="513.9" width="976" height="24.65"/>
            </clipPath>
<clipPath id="terminal-2250760499-line-22">
    <rect x="0" y="538.3" width="976" height="24.65"/>
            </clipPath>
    </defs>

    <rect fill="#292929" stroke="rgba(255,255,255,0.35)" stroke-width="1" x="1" y="1" width="992" height="633.6" rx="8"/><text class="terminal-2250760499-title" fill="#c5c8c6" text-anchor="middle" x="496" y="27">narrow-browse</text>
            <g transform="translate(26,22)">
            <circle cx="0" cy="0" r="7" fill="#ff5f57"/>
            <circle cx="22" cy="0" r="7" fill="#febc2e"/>
            <circle cx="44" cy="0" r="7" fill="#28c840"/>
            </g>

    <g transform="translate(9, 41)" clip-path="url(#terminal-2250760499-clip-terminal)">
    <rect fill="#3c3c3c" x="0" y="1.5" width="12.2" height="24.65" shape-rendering="crispEdges"/><rect fill="#3c3c3c" x="12.2" y="1.5" width="12.2" height="24.65" shape-rendering="crispEdges"/><rect fill="#3c3c3c" x="24.4" y="1.5" width="61" height="24.65" shape-rendering="crispEdges"/><rect fill="#3c3c3c" x="85.4" y="1.5" width="12.2" height="24.65" shape-rendering="crispEdges"/><rect fill="#3c3c3c" x="97.6" y="1.5" width="134.2" height="24.65" shape-rendering="crispEdges"/><rect fill="#3c3c3c" x="231.8" y="1.5" width="231.8" height="24.65" shape-rendering="crispEdges"/><rect fill="#3c3c3c" x="463.6" y="1.5" width="36.6" height="24.65" shape-rendering="crispEdges"/><rect fill="#3c3c3c" x="500.2" y="1.5" width="207.4" height="24.65" shape-rendering="crispEdges"/><rect fill="#3c3c3c" x="707.6" y="1.5" width="146.4" height="24.65" shape-rendering="crispEdges"/><rect fill="#3c3c3c" x="854" y="1.5" width="12.2" height="24.65" shape-rendering="crispEdges"/><rect fill="#3c3c3c" x="866.2" y="1.5" width="0" height="24.65" shape-rendering="crispEdges"/><rect fill="#3c3c3c" x="866.2" y="1.5" width="109.8" height="24.65" shape-rendering="crispEdges"/><rect fill="#1e1e1e" x="0" y="25.9" width="976" height="24.65" shape-rendering="crispEdges"/><rect fill="#1e1e1e" x="0" y="50.3" width="12.2" height="24.65" shape-rendering="crispEdges"/><rect fill="#1e1e1e" x="12.2" y="50.3" width="951.6" height="24.65" shape-rendering="crispEdges"/><rect fill="#1e1e1e" x="963.8" y="50.3" width="12.2" height="24.65" shape-rendering="crispEdges"/><rect fill="#1e1e1e" x="0" y="74.7" width="12.2" height="24.65" shape-rendering="crispEdges"/><rect fill="#1e1e1e" x="12.2" y="74.7" width="12.2" height="24.65" shape-rendering="crispEdges"/><rect fill="#1e1e1e" x="24.4" y="74.7" width="12.2" height="24.65" shape-rendering="crispEdges"/><rect fill="#1e1e1e" x="36.6" y="74.7" width="73.2" height="24.65" shape-rendering="crispEdges"/><rect fill="#1e1e1e" x="109.8" y="74.7" width="134.2" height="24.65" shape-rendering="crispEdges"/><rect fill="#1e1e1e" x="244" y="74.7" width="719.8" height="24.65" shape-rendering="crispEdges"/><rect fill="#1e1e1e" x="963.8" y="74.7" width="12.2" height="24.65" shape-rendering="crispEdges"/><rect fill="#1e1e1e" x="0" y="99.1" width="12.2" height="24.65" shape-rendering="crispEdges"/><rect fill="#1e1e1e" x="12.2" y="99.1" width="951.6" height="24.65" shape-rendering="crispEdges"/><rect fill="#1e1e1e" x="963.8" y="99.1" width="12.2" height="24.65" shape-rendering="crispEdges"/><rect fill="#1e1e1e" x="0" y="123.5" width="12.2" height="24.65" shape-rendering="crispEdges"/><rect fill="#1e1e1e" x="12.2" y="123.5" width="12.2" height="24.65" shape-rendering="crispEdges"/><rect fill="#1e1e1e" x="24.4" y="123.5" width="170.8" height="24.65" shape-rendering="crispEdges"/><rect fill="#1e1e1e" x="195.2" y="123.5" width="36.6" height="24.65" shape-rendering="crispEdges"/><rect fill="#1e1e1e" x="231.8" y="123.5" width="109.8" height="24.65" shape-rendering="crispEdges"/><rect fill="#1e1e1e" x="341.6" y="123.5" width="61" height="24.65" shape-rendering="crispEdges"/><rect fill="#1e1e1e" x="402.6" y="123.5" width="146.4" height="24.65" shape-rendering="crispEdges"/><rect fill="#1e1e1e" x="549" y="123.5" width="48.8" height="24.65" shape-rendering="crispEdges"/><rect fill="#1e1e1e" x="597.8" y="123.5" width="134.2" height="24.65" shape-rendering="crispEdges"/><rect fill="#1e1e1e" x="732" y="123.5" width="231.8" height="24.65" shape-rendering="crispEdges"/><rect fill="#1e1e1e" x="963.8" y="123.5" width="12.2" height="24.65" shape-rendering="crispEdges"/><rect fill="#1e1e1e" x="0" y="147.9" width="12.2" height="24.65" shape-rendering="crispEdges"/><rect fill="#1e1e1e" x="12.2" y="147.9" width="951.6" height="24.65" shape-rendering="crispEdges"/><rect fill="#1e1e1e" x="963.8" y="147.9" width="12.2" height="24.65" shape-rendering="crispEdges"/><rect fill="#1e1e1e" x="0" y="172.3" width="976" height="24.65" shape-rendering="crispEdges"/><rect fill="#1e1e1e" x="0" y="196.7" width="976" height="24.65" shape-rendering="crispEdges"/><rect fill="#1e1e1e" x="0" y="221.1" width="12.2" height="24.65" shape-rendering="crispEdges"/><rect fill="#1e1e1e" x="12.2" y="221.1" width="951.6" height="24.65" shape-rendering="crispEdges"/><rect fill="#1e1e1e" x="963.8" y="221.1" width="12.2" height="24.65" shape-rendering="crispEdges"/><rect fill="#1e1e1e" x="0" y="245.5" width="12.2" height="24.65" shape-rendering="crispEdges"/><rect fill="#1e1e1e" x="12.2" y="245.5" width="12.2" height="24.65" shape-rendering="crispEdges"/><rect fill="#1e1e1e" x="24.4" y="245.5" width="329.4" height="24.65" shape-rendering="crispEdges"/><rect fill="#1e1e1e" x="353.8" y="245.5" width="610" height="24.65" shape-rendering="crispEdges"/><rect fill="#1e1e1e" x="963.8" y="245.5" width="12.2" height="24.65" shape-rendering="crispEdges"/><rect fill="#1e1e1e" x="0" y="269.9" width="12.2" height="24.65" shape-rendering="crispEdges"/><rect fill="#1e1e1e" x="12.2" y="269.9" width="951.6" height="24.65" shape-rendering="crispEdges"/><rect fill="#1e1e1e" x="963.8" y="269.9" width="12.2" height="24.65" shape-rendering="crispEdges"/><rect fill="#1e1e1e" x="0" y="294.3" width="12.2" height="24.65" shape-rendering="crispEdges"/><rect fill="#1e1e1e" x="12.2" y="294.3" width="12.2" height="24.65" shape-rendering="crispEdges"/><rect fill="#c2c2c2" x="24.4" y="294.3" width="12.2" height="24.65" shape-rendering="crispEdges"/><rect fill="#1e1e1e" x="36.6" y="294.3" width="12.2" height="24.65" shape-rendering="crispEdges"/><rect fill="#1e1e1e" x="48.8" y="294.3" width="744.2" height="24.65" shape-rendering="crispEdges"/><rect fill="#1e1e1e" x="793" y="294.3" width="134.2" height="24.65" shape-rendering="crispEdges"/><rect fill="#474747" x="927.2" y="294.3" width="24.4" height="24.65" shape-rendering="crispEdges"/><rect fill="#1e1e1e" x="951.6" y="294.3" width="12.2" height="24.65" shape-rendering="crispEdges"/><rect fill="#1e1e1e" x="963.8" y="294.3" width="12.2" height="24.65" shape-rendering="crispEdges"/><rect fill="#1e1e1e" x="0" y="318.7" width="12.2" height="24.65" shape-rendering="crispEdges"/><rect fill="#1e1e1e" x="12.2" y="318.7" width="12.2" height="24.65" shape-rendering="crispEdges"/><rect fill="#1e1e1e" x="24.4" y="318.7" width="0" height="24.65" shape-rendering="crispEdges"/><rect fill="#1e1e1e" x="24.4" y="318.7" width="902.8" height="24.65" shape-rendering="crispEdges"/><rect fill="#474747" x="927.2" y="318.7" width="24.4" height="24.65" shape-rendering="crispEdges"/><rect fill="#1e1e1e" x="951.6" y="318.7" width="12.2" height="24.65" shape-rendering="crispEdges"/><rect fill="#1e1e1e" x="963.8" y="318.7" width="12.2" height="24.65" shape-rendering="crispEdges"/><rect fill="#1e1e1e" x="0" y="343.1" width="12.2" height="24.65" shape-rendering="crispEdges"/><rect fill="#1e1e1e" x="12.2" y="343.1" width="12.2" height="24.65" shape-rendering="crispEdges"/><rect fill="#1e1e1e" x="24.4" y="343.1" width="61" height="24.65" shape-rendering="crispEdges"/><rect fill="#1e1e1e" x="85.4" y="343.1" width="73.2" height="24.65" shape-rendering="crispEdges"/><rect fill="#1e1e1e" x="158.6" y="343.1" width="61" height="24.65" shape-rendering="crispEdges"/><rect fill="#1e1e1e" x="219.6" y="343.1" width="24.4" height="24.65" shape-rendering="crispEdges"/><rect fill="#1e1e1e" x="244" y="343.1" width="683.2" height="24.65" shape-rendering="crispEdges"/><rect fill="#474747" x="927.2" y="343.1" width="24.4" height="24.65" shape-rendering="crispEdges"/><rect fill="#1e1e1e" x="951.6" y="343.1" width="12.2" height="24.65" shape-rendering="crispEdges"/><rect fill="#1e1e1e" x="963.8" y="343.1" width="12.2" height="24.65" shape-rendering="crispEdges"/><rect fill="#1e1e1e" x="0" y="367.5" width="12.2" height="24.65" shape-rendering="crispEdges"/><rect fill="#1e1e1e" x="12.2" y="367.5" width="12.2" height="24.65" shape-rendering="crispEdges"/><rect fill="#1e1e1e" x="24.4" y="367.5" width="0" height="24.65" shape-rendering="crispEdges"/><rect fill="#1e1e1e" x="24.4" y="367.5" width="902.8" height="24.65" shape-rendering="crispEdges"/><rect fill="#474747" x="927.2" y="367.5" width="24.4" height="24.65" shape-rendering="crispEdges"/><rect fill="#1e1e1e" x="951.6" y="367.5" width="12.2" height="24.65" shape-rendering="crispEdges"/><rect fill="#1e1e1e" x="963.8" y="367.5" width="12.2" height="24.65" shape-rendering="crispEdges"/><rect fill="#1e1e1e" x="0" y="391.9" width="12.2" height="24.65" shape-rendering="crispEdges"/><rect fill="#1e1e1e" x="12.2" y="391.9" width="12.2" height="24.65" shape-rendering="crispEdges"/><rect fill="#1e1e1e" x="24.4" y="391.9" width="24.4" height="24.65" shape-rendering="crispEdges"/><rect fill="#1e1e1e" x="48.8" y="391.9" width="146.4" height="24.65" shape-rendering="crispEdges"/><rect fill="#1e1e1e" x="195.2" y="391.9" width="12.2" height="24.65" shape-rendering="crispEdges"/><rect fill="#1e1e1e" x="207.4" y="391.9" width="122" height="24.65" shape-rendering="crispEdges"/><rect fill="#1e1e1e" x="329.4" y="391.9" width="597.8" height="24.65" shape-rendering="crispEdges"/><rect fill="#474747" x="927.2" y="391.9" width="24.4" height="24.65" shape-rendering="crispEdges"/><rect fill="#1e1e1e" x="951.6" y="391.9" width="12.2" height="24.65" shape-rendering="crispEdges"/><rect fill="#1e1e1e" x="963.8" y="391.9" width="12.2" height="24.65" shape-rendering="crispEdges"/><rect fill="#1e1e1e" x="0" y="416.3" width="12.2" height="24.65" shape-rendering="crispEdges"/><rect fill="#1e1e1e" x="12.2" y="416.3" width="12.2" height="24.65" shape-rendering="crispEdges"/><rect fill="#1e1e1e" x="24.4" y="416.3" width="24.4" height="24.65" shape-rendering="crispEdges"/><rect fill="#1e1e1e" x="48.8" y="416.3" width="146.4" height="24.65" shape-rendering="crispEdges"/><rect fill="#1e1e1e" x="195.2" y="416.3" width="207.4" height="24.65" shape-rendering="crispEdges"/><rect fill="#1e1e1e" x="402.6" y="416.3" width="524.6" height="24.65" shape-rendering="crispEdges"/><rect fill="#474747" x="927.2" y="416.3" width="24.4" height="24.65" shape-rendering="crispEdges"/><rect fill="#1e1e1e" x="951.6" y="416.3" width="12.2" height="24.65" shape-rendering="crispEdges"/><rect fill="#1e1e1e" x="963.8" y="416.3" width="12.2" height="24.65" shape-rendering="crispEdges"/><rect fill="#1e1e1e" x="0" y="440.7" width="12.2" height="24.65" shape-rendering="crispEdges"/><rect fill="#1e1e1e" x="12.2" y="440.7" width="12.2" height="24.65" shape-rendering="crispEdges"/><rect fill="#1e1e1e" x="24.4" y="440.7" width="24.4" height="24.65" shape-rendering="crispEdges"/><rect fill="#1e1e1e" x="48.8" y="440.7" width="146.4" height="24.65" shape-rendering="crispEdges"/><rect fill="#1e1e1e" x="195.2" y="440.7" width="12.2" height="24.65" shape-rendering="crispEdges"/><rect fill="#1e1e1e" x="207.4" y="440.7" width="61" height="24.65" shape-rendering="crispEdges"/><rect fill="#1e1e1e" x="268.4" y="440.7" width="12.2" height="24.65" shape-rendering="crispEdges"/><rect fill="#1e1e1e" x="280.6" y="440.7" width="61" height="24.65" shape-rendering="crispEdges"/><rect fill="#1e1e1e" x="341.6" y="440.7" width="12.2" height="24.65" shape-rendering="crispEdges"/><rect fill="#1e1e1e" x="353.8" y="440.7" width="61" height="24.65" shape-rendering="crispEdges"/><rect fill="#1e1e1e" x="414.8" y="440.7" width="512.4" height="24.65" shape-rendering="crispEdges"/><rect fill="#1e1e1e" x="927.2" y="440.7" width="24.4" height="24.65" shape-rendering="crispEdges"/><rect fill="#1e1e1e" x="951.6" y="440.7" width="12.2" height="24.65" shape-rendering="crispEdges"/><rect fill="#1e1e1e" x="963.8" y="440.7" width="12.2" height="24.65" shape-rendering="crispEdges"/><rect fill="#1e1e1e" x="0" y="465.1" width="12.2" height="24.65" shape-rendering="crispEdges"/><rect fill="#1e1e1e" x="12.2" y="465.1" width="12.2" height="24.65" shape-rendering="crispEdges"/><rect fill="#1e1e1e" x="24.4" y="465.1" width="0" height="24.65" shape-rendering="crispEdges"/><rect fill="#1e1e1e" x="24.4" y="465.1" width="902.8" height="24.65" shape-rendering="crispEdges"/><rect fill="#1e1e1e" x="927.2" y="465.1" width="24.4" height="24.65" shape-rendering="crispEdges"/><rect fill="#1e1e1e" x="951.6" y="465.1" width="12.2" height="24.65" shape-rendering="crispEdges"/><rect fill="#1e1e1e" x="963.8" y="465.1" width="12.2" height="24.65" shape-rendering="crispEdges"/><rect fill="#1e1e1e" x="0" y="489.5" width="12.2" height="24.65" shape-rendering="crispEdges"/><rect fill="#1e1e1e" x="12.2" y="489.5" width="12.2" height="24.65" shape-rendering="crispEdges"/><rect fill="#1e1e1e" x="24.4" y="489.5" width="122" height="24.65" shape-rendering="crispEdges"/><rect fill="#1e1e1e" x="146.4" y="489.5" width="780.8" height="24.65" shape-rendering="crispEdges"/><rect fill="#1e1e1e" x="927.2" y="489.5" width="24.4" height="24.65" shape-rendering="crispEdges"/><rect fill="#1e1e1e" x="951.6" y="489.5" width="12.2" height="24.65" shape-rendering="crispEdges"/><rect fill="#1e1e1e" x="963.8" y="489.5" width="12.2" height="24.65" shape-rendering="crispEdges"/><rect fill="#1e1e1e" x="0" y="513.9" width="12.2" height="24.65" shape-rendering="crispEdges"/><rect fill="#1e1e1e" x="12.2" y="513.9" width="12.2" height="24.65" shape-rendering="crispEdges"/><rect fill="#1e1e1e" x="24.4" y="513.9" width="24.4" height="24.65" shape-rendering="crispEdges"/><rect fill="#1e1e1e" x="48.8" y="513.9" width="829.6" height="24.65" shape-rendering="crispEdges"/><rect fill="#1e1e1e" x="878.4" y="513.9" width="48.8" height="24.65" shape-rendering="crispEdges"/><rect fill="#1e1e1e" x="927.2" y="513.9" width="24.4" height="24.65" shape-rendering="crispEdges"/><rect fill="#1e1e1e" x="951.6" y="513.9" width="12.2" height="24.65" shape-rendering="crispEdges"/><rect fill="#1e1e1e" x="963.8" y="513.9" width="12.2" height="24.65" shape-rendering="crispEdges"/><rect fill="#1e1e1e" x="0" y="538.3" width="976" height="24.65" shape-rendering="crispEdges"/><rect fill="#1e1e1e" x="0" y="562.7" width="976" height="24.65" shape-rendering="crispEdges"/>
    <g class="terminal-2250760499-matrix">
    <text class="terminal-2250760499-r2" x="12.2" y="20" textLength="12.2" clip-path="url(#terminal-2250760499-line-0)">⭘</text><text class="terminal-2250760499-r3" x="231.8" y="20" textLength="231.8" clip-path="url(#terminal-2250760499-line-0)">arXiv&#160;Paper&#160;Browser</text><text class="terminal-2250760499-r4" x="463.6" y="20" textLength="36.6" clip-path="url(#terminal-2250760499-line-0)">&#160;—&#160;</text><text class="terminal-2250760499-r4" x="500.2" y="20" textLength="207.4" clip-path="url(#terminal-2250760499-line-0)">Browse&#160;·&#160;3&#160;papers</text><text class="terminal-2250760499-r1" x="976" y="20" textLength="12.2" clip-path="url(#terminal-2250760499-line-0)">
</text><text class="terminal-2250760499-r5" x="0" y="44.4" textLength="976" clip-path="url(#terminal-2250760499-line-1)">┌──────────────────────────────────────────────────────────────────────────────┐</text><text class="terminal-2250760499-r1" x="976" y="44.4" textLength="12.2" clip-path="url(#terminal-2250760499-line-1)">
</text><text class="terminal-2250760499-r5" x="0" y="68.8" textLength="12.2" clip-path="url(#terminal-2250760499-line-2)">│</text><text class="terminal-2250760499-r6" x="963.8" y="68.8" textLength="12.2" clip-path="url(#terminal-2250760499-line-2)">│</text><text class="terminal-2250760499-r1" x="976" y="68.8" textLength="12.2" clip-path="url(#terminal-2250760499-line-2)">
</text><text class="terminal-2250760499-r5" x="0" y="93.2" textLength="12.2" clip-path="url(#terminal-2250760499-line-3)">│</text><text class="terminal-2250760499-r3" x="36.6" y="93.2" textLength="73.2" clip-path="url(#terminal-2250760499-line-3)">Papers</text><text class="terminal-2250760499-r3" x="109.8" y="93.2" textLength="134.2" clip-path="url(#terminal-2250760499-line-3)">&#160;·&#160;Browse&#160;3</text><text class="terminal-2250760499-r6" x="963.8" y="93.2" textLength="12.2" clip-path="url(#terminal-2250760499-line-3)">│</text><text class="terminal-2250760499-r1" x="976" y="93.2" textLength="12.2" clip-path="url(#terminal-2250760499-line-3)">
</text><text class="terminal-2250760499-r5" x="0" y="117.6" textLength="12.2" clip-path="url(#terminal-2250760499-line-4)">│</text><text class="terminal-2250760499-r6" x="963.8" y="117.6" textLength="12.2" clip-path="url(#terminal-2250760499-line-4)">│</text><text class="terminal-2250760499-r1" x="976" y="117.6" textLength="12.2" clip-path="url(#terminal-2250760499-line-4)">
</text><text class="terminal-2250760499-r5" x="0" y="142" textLength="12.2" clip-path="url(#terminal-2250760499-line-5)">│</text><text class="terminal-2250760499-r7" x="24.4" y="142" textLength="170.8" clip-path="url(#terminal-2250760499-line-5)">Saved&#160;searches</text><text class="terminal-2250760499-r8" x="231.8" y="142" textLength="109.8" clip-path="url(#terminal-2250760499-line-5)">1:&#160;agents</text><text class="terminal-2250760499-r8" x="402.6" y="142" textLength="146.4" clip-path="url(#terminal-2250760499-line-5)">2:&#160;unread&#160;AI</text><text class="terminal-2250760499-r8" x="597.8" y="142" textLength="134.2" clip-path="url(#terminal-2250760499-line-5)">Ctrl+b&#160;save</text><text class="terminal-2250760499-r6" x="963.8" y="142" textLength="12.2" clip-path="url(#terminal-2250760499-line-5)">│</text><text class="terminal-2250760499-r1" x="976" y="142" textLength="12.2" clip-path="url(#terminal-2250760499-line-5)">
</text><text class="terminal-2250760499-r5" x="0" y="166.4" textLength="12.2" clip-path="url(#terminal-2250760499-line-6)">│</text><text class="terminal-2250760499-r9" x="12.2" y="166.4" textLength="951.6" clip-path="url(#terminal-2250760499-line-6)">──────────────────────────────────────────────────────────────────────────────</text><text class="terminal-2250760499-r6" x="963.8" y="166.4" textLength="12.2" clip-path="url(#terminal-2250760499-line-6)">│</text><text class="terminal-2250760499-r1" x="976" y="166.4" textLength="12.2" clip-path="url(#terminal-2250760499-line-6)">
</text><text class="terminal-2250760499-r6" x="0" y="190.8" textLength="976" clip-path="url(#terminal-2250760499-line-7)">└──────────────────────────────────────────────────────────────────────────────┘</text><text class="terminal-2250760499-r1" x="976" y="190.8" textLength="12.2" clip-path="url(#terminal-2250760499-line-7)">
</text><text class="terminal-2250760499-r6" x="0" y="215.2" textLength="976" clip-path="url(#terminal-2250760499-line-8)">┌──────────────────────────────────────────────────────────────────────────────┐</text><text class="terminal-2250760499-r1" x="976" y="215.2" textLength="12.2" clip-path="url(#terminal-2250760499-line-8)">
</text><text class="terminal-2250760499-r6" x="0" y="239.6" textLength="12.2" clip-path="url(#terminal-2250760499-line-9)">│</text><text class="terminal-2250760499-r6" x="963.8" y="239.6" textLength="12.2" clip-path="url(#terminal-2250760499-line-9)">│</text><text class="terminal-2250760499-r1" x="976" y="239.6" textLength="12.2" clip-path="url(#terminal-2250760499-line-9)">
</text><text class="terminal-2250760499-r6" x="0" y="264" textLength="12.2" clip-path="url(#terminal-2250760499-line-10)">│</text><text class="terminal-2250760499-r10" x="24.4" y="264" textLength="329.4" clip-path="url(#terminal-2250760499-line-10)">&#160;Paper&#160;Details&#160;·&#160;1/3&#160;·&#160;scan</text><text class="terminal-2250760499-r6" x="963.8" y="264" textLength="12.2" clip-path="url(#terminal-2250760499-line-10)">│</text><text class="terminal-2250760499-r1" x="976" y="264" textLength="12.2" clip-path="url(#terminal-2250760499-line-10)">
</text><text class="terminal-2250760499-r6" x="0" y="288.4" textLength="12.2" clip-path="url(#terminal-2250760499-line-11)">│</text><text class="terminal-2250760499-r6" x="963.8" y="288.4" textLength="12.2" clip-path="url(#terminal-2250760499-line-11)">│</text><text class="terminal-2250760499-r1" x="976" y="288.4" textLength="12.2" clip-path="url(#terminal-2250760499-line-11)">
</text><text class="terminal-2250760499-r6" x="0" y="312.8" textLength="12.2" clip-path="url(#terminal-2250760499-line-12)">│</text><text class="terminal-2250760499-r11" x="24.4" y="312.8" textLength="12.2" clip-path="url(#terminal-2250760499-line-12)">❯</text><text class="terminal-2250760499-r3" x="48.8" y="312.8" textLength="744.2" clip-path="url(#terminal-2250760499-line-12)">Retrieval-Augmented&#160;Agents&#160;for&#160;Long-Horizon&#160;Literature&#160;Review</text><text class="terminal-2250760499-r6" x="963.8" y="312.8" textLength="12.2" clip-path="url(#terminal-2250760499-line-12)">│</text><text class="terminal-2250760499-r1" x="976" y="312.8" textLength="12.2" clip-path="url(#terminal-2250760499-line-12)">
</text><text class="terminal-2250760499-r6" x="0" y="337.2" textLength="12.2" clip-path="url(#terminal-2250760499-line-13)">│</text><text class="terminal-2250760499-r6" x="963.8" y="337.2" textLength="12.2" clip-path="url(#terminal-2250760499-line-13)">│</text><text class="terminal-2250760499-r1" x="976" y="337.2" textLength="12.2" clip-path="url(#terminal-2250760499-line-13)">
</text><text class="terminal-2250760499-r6" x="0" y="361.6" textLength="12.2" clip-path="url(#terminal-2250760499-line-14)">│</text><text class="terminal-2250760499-r13" x="24.4" y="361.6" textLength="61" clip-path="url(#terminal-2250760499-line-14)">Star:</text><text class="terminal-2250760499-r12" x="85.4" y="361.6" textLength="73.2" clip-path="url(#terminal-2250760499-line-14)">&#160;yes&#160;&#160;</text><text class="terminal-2250760499-r14" x="158.6" y="361.6" textLength="61" clip-path="url(#terminal-2250760499-line-14)">Tags:</text><text class="terminal-2250760499-r12" x="219.6" y="361.6" textLength="24.4" clip-path="url(#terminal-2250760499-line-14)">&#160;3</text><text class="terminal-2250760499-r6" x="963.8" y="361.6" textLength="12.2" clip-path="url(#terminal-2250760499-line-14)">│</text><text class="terminal-2250760499-r1" x="976" y="361.6" textLength="12.2" clip-path="url(#terminal-2250760499-line-14)">
</text><text class="terminal-2250760499-r6" x="0" y="386" textLength="12.2" clip-path="url(#terminal-2250760499-line-15)">│</text><text class="terminal-2250760499-r6" x="963.8" y="386" textLength="12.2" clip-path="url(#terminal-2250760499-line-15)">│</text><text class="terminal-2250760499-r1" x="976" y="386" textLength="12.2" clip-path="url(#terminal-2250760499-line-15)">
</text><text class="terminal-2250760499-r6" x="0" y="410.4" textLength="12.2" clip-path="url(#terminal-2250760499-line-16)">│</text><text class="terminal-2250760499-r3" x="48.8" y="410.4" textLength="146.4" clip-path="url(#terminal-2250760499-line-16)">arXiv:&#160;&#160;&#160;&#160;&#160;&#160;</text><text class="terminal-2250760499-r14" x="207.4" y="410.4" textLength="122" clip-path="url(#terminal-2250760499-line-16)">2401.01001</text><text class="terminal-2250760499-r6" x="963.8" y="410.4" textLength="12.2" clip-path="url(#terminal-2250760499-line-16)">│</text><text class="terminal-2250760499-r1" x="976" y="410.4" textLength="12.2" clip-path="url(#terminal-2250760499-line-16)">
</text><text class="terminal-2250760499-r6" x="0" y="434.8" textLength="12.2" clip-path="url(#terminal-2250760499-line-17)">│</text><text class="terminal-2250760499-r3" x="48.8" y="434.8" textLength="146.4" clip-path="url(#terminal-2250760499-line-17)">Date:&#160;&#160;&#160;&#160;&#160;&#160;&#160;</text><text class="terminal-2250760499-r12" x="195.2" y="434.8" textLength="207.4" clip-path="url(#terminal-2250760499-line-17)">&#160;Mon,&#160;15&#160;Jan&#160;2024</text><text class="terminal-2250760499-r11" x="927.2" y="434.8" textLength="24.4" clip-path="url(#terminal-2250760499-line-17)">▅▅</text><text class="terminal-2250760499-r6" x="963.8" y="434.8" textLength="12.2" clip-path="url(#terminal-2250760499-line-17)">│</text><text class="terminal-2250760499-r1" x="976" y="434.8" textLength="12.2" clip-path="url(#terminal-2250760499-line-17)">
</text><text class="terminal-2250760499-r6" x="0" y="459.2" textLength="12.2" clip-path="url(#terminal-2250760499-line-18)">│</text><text class="terminal-2250760499-r3" x="48.8" y="459.2" textLength="146.4" clip-path="url(#terminal-2250760499-line-18)">Categories:&#160;</text><text class="terminal-2250760499-r15" x="207.4" y="459.2" textLength="61" clip-path="url(#terminal-2250760499-line-18)">cs.AI</text><text class="terminal-2250760499-r5" x="280.6" y="459.2" textLength="61" clip-path="url(#terminal-2250760499-line-18)">cs.CL</text><text class="terminal-2250760499-r14" x="353.8" y="459.2" textLength="61" clip-path="url(#terminal-2250760499-line-18)">cs.IR</text><text class="terminal-2250760499-r6" x="963.8" y="459.2" textLength="12.2" clip-path="url(#terminal-2250760499-line-18)">│</text><text class="terminal-2250760499-r1" x="976" y="459.2" textLength="12.2" clip-path="url(#terminal-2250760499-line-18)">
</text><text class="terminal-2250760499-r6" x="0" y="483.6" textLength="12.2" clip-path="url(#terminal-2250760499-line-19)">│</text><text class="terminal-2250760499-r6" x="963.8" y="483.6" textLength="12.2" clip-path="url(#terminal-2250760499-line-19)">│</text><text class="terminal-2250760499-r1" x="976" y="483.6" textLength="12.2" clip-path="url(#terminal-2250760499-line-19)">
</text><text class="terminal-2250760499-r6" x="0" y="508" textLength="12.2" clip-path="url(#terminal-2250760499-line-20)">│</text><text class="terminal-2250760499-r16" x="24.4" y="508" textLength="122" clip-path="url(#terminal-2250760499-line-20)">▾&#160;Abstract</text><text class="terminal-2250760499-r6" x="963.8" y="508" textLength="12.2" clip-path="url(#terminal-2250760499-line-20)">│</text><text class="terminal-2250760499-r1" x="976" y="508" textLength="12.2" clip-path="url(#terminal-2250760499-line-20)">
</text><text class="terminal-2250760499-r6" x="0" y="532.4" textLength="12.2" clip-path="url(#terminal-2250760499-line-21)">│</text><text class="terminal-2250760499-r12" x="48.8" y="532.4" textLength="829.6" clip-path="url(#terminal-2250760499-line-21)">We&#160;study&#160;retrieval-augmented&#160;agents&#160;that&#160;organize&#160;papers,&#160;notes,&#160;and</text><text class="terminal-2250760499-r6" x="963.8" y="532.4" textLength="12.2" clip-path="url(#terminal-2250760499-line-21)">│</text><text class="terminal-2250760499-r1" x="976" y="532.4" textLength="12.2" clip-path="url(#terminal-2250760499-line-21)">
</text><text class="terminal-2250760499-r6" x="0" y="556.8" textLength="976" clip-path="url(#terminal-2250760499-line-22)">└──────────────────────────────────────────────────────────────────────────────┘</text><text class="terminal-2250760499-r1" x="976" y="556.8" textLength="12.2" clip-path="url(#terminal-2250760499-line-22)">
</text><text class="terminal-2250760499-r9" x="0" y="581.2" textLength="976" clip-path="url(#terminal-2250760499-line-23)">────────────────────────────────────────────────────────────────────────────────</text>
    </g>
    </g>
</svg>
